<?xml version="1.0" encoding="UTF-8"?>
<svg xmlns="http://www.w3.org/2000/svg" xmlns:xlink="http://www.w3.org/1999/xlink" width="566.929pt" height="566.929pt" viewBox="0 0 566.929 566.929" version="1.1">
<g id="surface1">
<path style=" stroke:none;fill-rule:nonzero;fill:rgb(53.233337%,74.427795%,90.232849%);fill-opacity:1;" d="M 104.328125 254.191406 L 361.496094 254.191406 L 361.496094 329.453125 L 104.328125 329.453125 Z M 104.328125 254.191406 "/>
<path style=" stroke:none;fill-rule:nonzero;fill:rgb(18.03894%,19.219971%,57.249451%);fill-opacity:1;" d="M 168.246094 272.738281 L 115.671875 272.738281 L 115.671875 265.535156 L 168.246094 265.535156 Z M 168.246094 272.738281 "/>
<path style=" stroke:none;fill-rule:nonzero;fill:rgb(18.03894%,19.219971%,57.249451%);fill-opacity:1;" d="M 168.246094 288.222656 L 115.671875 288.222656 L 115.671875 295.425781 L 168.246094 295.425781 Z M 168.246094 288.222656 "/>
<path style=" stroke:none;fill-rule:nonzero;fill:rgb(22.108459%,44.499207%,75.782776%);fill-opacity:1;" d="M 405.683594 315.847656 C 405.648438 315.644531 405.621094 315.4375 405.609375 315.230469 C 405.59375 315.039063 405.59375 314.851563 405.597656 314.660156 L 405.597656 314.648438 C 405.601563 314.621094 405.601563 314.589844 405.605469 314.5625 L 405.605469 314.554688 C 405.613281 314.371094 405.628906 314.183594 405.65625 314 L 405.65625 313.996094 C 405.65625 313.996094 405.65625 313.992188 405.65625 313.992188 C 405.6875 313.785156 405.730469 313.582031 405.78125 313.382813 C 405.78125 313.378906 405.785156 313.378906 405.785156 313.375 C 405.734375 312.621094 405.820313 311.855469 406.070313 311.148438 C 406.042969 311.066406 406.003906 310.992188 405.984375 310.910156 L 379.03125 310.910156 L 379.03125 265.535156 L 373.082031 265.535156 L 373.082031 318.109375 L 405.609375 318.109375 C 405.621094 317.949219 405.636719 317.789063 405.660156 317.632813 C 405.578125 317.039063 405.582031 316.4375 405.683594 315.851563 Z M 405.683594 315.847656 "/>
<path style=" stroke:none;fill-rule:nonzero;fill:rgb(22.108459%,44.499207%,75.782776%);fill-opacity:1;" d="M 439.1875 284.375 L 412.203125 265.511719 L 412.203125 273.828125 L 436.214844 290.605469 L 436.214844 310.886719 L 403.582031 310.886719 C 403.558594 310.964844 403.523438 311.042969 403.496094 311.125 C 403.800781 311.996094 403.875 312.957031 403.730469 313.878906 C 403.859375 314.664063 403.808594 315.476563 403.609375 316.246094 C 403.652344 316.6875 403.625 317.132813 403.566406 317.574219 C 403.59375 317.746094 403.613281 317.914063 403.625 318.085938 L 442.160156 318.085938 L 442.160156 290.605469 L 466.160156 273.828125 L 466.160156 265.511719 Z M 439.1875 284.375 "/>
<path style=" stroke:none;fill-rule:nonzero;fill:rgb(18.03894%,19.219971%,57.249451%);fill-opacity:1;" d="M 327.46875 318.109375 L 320.265625 318.109375 L 320.265625 290.628906 L 289.265625 272.738281 L 244.144531 272.738281 L 244.144531 291.824219 L 236.945313 291.824219 L 236.945313 265.535156 L 291.207031 265.535156 L 323.867188 284.398438 L 356.542969 265.535156 L 356.542969 273.851563 L 327.46875 290.628906 Z M 327.46875 318.109375 "/>
<path style=" stroke:none;fill-rule:nonzero;fill:rgb(18.03894%,19.219971%,57.249451%);fill-opacity:1;" d="M 168.246094 310.910156 L 115.671875 310.910156 L 115.671875 318.109375 L 172.070313 318.109375 L 202.597656 273.054688 L 233.136719 318.109375 L 289.519531 318.109375 L 289.519531 291.824219 L 282.332031 291.824219 L 282.332031 310.910156 L 236.945313 310.910156 L 202.597656 260.230469 Z M 168.246094 310.910156 "/>
<path style=" stroke:none;fill-rule:nonzero;fill:rgb(22.108459%,44.499207%,75.782776%);fill-opacity:1;" d="M 437.90625 317.875 L 374.90625 317.875 L 374.90625 310.8125 L 437.90625 310.8125 Z M 437.90625 317.875 "/>
</g>
</svg>
